<?xml version="1.0" standalone="no"?>
<!DOCTYPE svg PUBLIC "-//W3C//DTD SVG 20010904//EN"
 "http://www.w3.org/TR/2001/REC-SVG-20010904/DTD/svg10.dtd">
<svg version="1.0" xmlns="http://www.w3.org/2000/svg"
 width="50.000000pt" height="50.000000pt" viewBox="0 0 50.000000 50.000000"
 preserveAspectRatio="xMidYMid meet">

<g transform="translate(0.000000,50.000000) scale(0.100000,-0.100000)"
fill="#000000" stroke="none">
<path d="M87 452 c-21 -23 -21 -80 -2 -106 21 -28 19 -34 -20 -53 -32 -16 -52
-40 -40 -51 3 -3 11 2 18 11 6 9 24 21 40 26 37 14 43 35 22 74 -20 38 -17 76
8 91 43 27 72 -35 42 -91 -19 -35 -14 -62 13 -70 19 -5 55 -69 47 -84 -10 -16
-25 -10 -25 10 0 23 -36 51 -66 51 -47 0 -72 -80 -39 -124 21 -28 19 -34 -20
-53 -32 -16 -52 -40 -40 -51 3 -3 11 2 18 11 6 9 24 21 40 26 37 14 43 35 22
74 -30 56 -1 118 42 91 25 -15 28 -53 8 -91 -21 -39 -15 -60 22 -74 16 -5 34
-17 40 -26 7 -9 15 -14 18 -11 11 11 -8 37 -36 48 -16 7 -32 17 -35 21 -8 14
27 67 48 72 26 7 33 35 16 66 -20 34 -17 81 5 95 41 26 74 -42 43 -89 -22 -34
-20 -54 7 -66 26 -12 61 -64 53 -78 -3 -4 -19 -14 -35 -21 -28 -11 -47 -37
-36 -48 3 -3 11 2 18 11 6 9 24 21 40 26 37 14 43 35 22 74 -30 56 -1 118 43
91 24 -15 27 -53 7 -91 -21 -39 -15 -60 22 -74 16 -5 34 -17 40 -26 7 -9 15
-14 18 -11 12 11 -8 35 -40 51 -39 19 -41 25 -20 53 23 30 19 90 -7 108 -12 9
-32 16 -44 16 -24 0 -54 -29 -54 -53 0 -18 -15 -23 -24 -9 -8 14 28 80 46 85
27 8 32 35 13 70 -20 38 -17 76 8 91 43 27 72 -35 42 -91 -21 -39 -15 -60 22
-74 16 -5 34 -17 40 -26 7 -9 15 -14 18 -11 12 11 -8 35 -40 51 -39 19 -41 25
-20 53 23 30 19 90 -7 108 -68 48 -130 -35 -82 -109 9 -13 13 -29 9 -35 -10
-16 -19 -12 -30 12 -13 29 -59 46 -83 32 -9 -6 -21 -20 -27 -32 -11 -24 -20
-28 -30 -12 -4 6 0 22 9 35 24 36 21 91 -6 109 -30 21 -61 20 -81 -2z"/>
</g>
</svg>
