<?xml version="1.0" standalone="no"?>
<!DOCTYPE svg PUBLIC "-//W3C//DTD SVG 20010904//EN"
 "http://www.w3.org/TR/2001/REC-SVG-20010904/DTD/svg10.dtd">
<svg version="1.0" xmlns="http://www.w3.org/2000/svg"
 width="24.000000pt" height="24.000000pt" viewBox="0 0 24.000000 24.000000"
 preserveAspectRatio="xMidYMid meet">

<g transform="translate(0.000000,24.000000) scale(0.100000,-0.100000)"
fill="#000000" stroke="none">
<path d="M24 207 c-3 -8 -4 -32 -2 -53 3 -38 4 -39 43 -39 l40 0 0 50 0 50
-38 3 c-25 2 -39 -1 -43 -11z m66 -42 c0 -31 -3 -35 -25 -35 -22 0 -25 4 -25
35 0 31 3 35 25 35 22 0 25 -4 25 -35z"/>
<path d="M134 206 c-13 -35 0 -51 41 -51 38 0 40 2 40 30 0 27 -3 30 -38 33
-26 2 -39 -1 -43 -12z m66 -21 c0 -9 -9 -15 -25 -15 -16 0 -25 6 -25 15 0 9 9
15 25 15 16 0 25 -6 25 -15z"/>
<path d="M134 117 c-3 -8 -4 -32 -2 -53 3 -38 4 -39 43 -39 l40 0 0 50 0 50
-38 3 c-25 2 -39 -1 -43 -11z m66 -42 c0 -31 -3 -35 -25 -35 -22 0 -25 4 -25
35 0 31 3 35 25 35 22 0 25 -4 25 -35z"/>
<path d="M24 76 c-13 -35 0 -51 41 -51 38 0 40 2 40 30 0 27 -3 30 -38 33 -26
2 -39 -1 -43 -12z m66 -21 c0 -9 -9 -15 -25 -15 -16 0 -25 6 -25 15 0 9 9 15
25 15 16 0 25 -6 25 -15z"/>
</g>
</svg>
