<?xml version="1.0" standalone="no"?>
<!DOCTYPE svg PUBLIC "-//W3C//DTD SVG 20010904//EN"
 "http://www.w3.org/TR/2001/REC-SVG-20010904/DTD/svg10.dtd">
<svg version="1.0" xmlns="http://www.w3.org/2000/svg"
 width="60.000000pt" height="60.000000pt" viewBox="0 0 60.000000 60.000000"
 preserveAspectRatio="xMidYMid meet">

<g transform="translate(0.000000,60.000000) scale(0.100000,-0.100000)"
fill="#000000" stroke="none">
<path d="M4 587 c-2 -7 -3 -74 -2 -148 3 -130 4 -134 26 -137 32 -5 31 -57 -3
-84 -32 -25 -33 -67 -2 -96 32 -30 71 -28 96 4 26 33 26 54 1 87 l-20 25 37
31 c51 42 61 40 65 -16 l3 -48 113 -5 c104 -5 115 -7 147 -33 l35 -28 -20 -26
c-26 -34 -25 -59 5 -88 31 -32 59 -32 90 0 32 31 32 59 0 91 -33 33 -34 81 -2
86 22 3 22 5 22 148 l0 145 -202 0 c-177 0 -247 -8 -205 -22 6 -3 12 -11 12
-19 0 -11 -17 -14 -75 -14 -43 0 -75 -4 -75 -10 0 -6 32 -10 75 -10 60 0 75
-3 75 -15 0 -12 -15 -15 -75 -15 -43 0 -75 -4 -75 -10 0 -6 32 -10 75 -10 73
0 75 -1 75 -25 0 -17 -6 -25 -17 -25 -9 0 -38 -18 -65 -41 l-48 -40 0 40 c0
37 -2 41 -25 41 l-25 0 0 130 0 130 180 0 180 0 0 -30 c0 -16 5 -30 11 -30 6
0 9 16 7 38 l-3 37 -193 3 c-152 2 -194 0 -198 -11z m576 -237 l0 -130 -25 0
c-23 0 -25 -4 -25 -41 l0 -40 -48 40 -48 41 -107 0 -107 0 0 130 0 130 180 0
180 0 0 -130z m-480 -150 c11 -11 20 -24 20 -30 0 -13 -37 -50 -50 -50 -13 0
-50 37 -50 50 0 13 37 50 50 50 6 0 19 -9 30 -20z m460 -100 c11 -11 20 -24
20 -30 0 -13 -37 -50 -50 -50 -13 0 -50 37 -50 50 0 13 37 50 50 50 6 0 19 -9
30 -20z"/>
<path d="M250 430 c0 -6 43 -10 110 -10 67 0 110 4 110 10 0 6 -43 10 -110 10
-67 0 -110 -4 -110 -10z"/>
<path d="M500 430 c0 -5 11 -10 25 -10 14 0 25 5 25 10 0 6 -11 10 -25 10 -14
0 -25 -4 -25 -10z"/>
<path d="M250 380 c0 -5 23 -10 50 -10 28 0 50 5 50 10 0 6 -22 10 -50 10 -27
0 -50 -4 -50 -10z"/>
<path d="M380 380 c0 -6 35 -10 85 -10 50 0 85 4 85 10 0 6 -35 10 -85 10 -50
0 -85 -4 -85 -10z"/>
<path d="M250 330 c0 -6 57 -10 150 -10 93 0 150 4 150 10 0 6 -57 10 -150 10
-93 0 -150 -4 -150 -10z"/>
<path d="M250 280 c0 -6 35 -10 85 -10 50 0 85 4 85 10 0 6 -35 10 -85 10 -50
0 -85 -4 -85 -10z"/>
<path d="M50 530 c0 -6 43 -10 110 -10 67 0 110 4 110 10 0 6 -43 10 -110 10
-67 0 -110 -4 -110 -10z"/>
<path d="M300 530 c0 -5 11 -10 25 -10 14 0 25 5 25 10 0 6 -11 10 -25 10 -14
0 -25 -4 -25 -10z"/>
<path d="M50 480 c0 -5 23 -10 50 -10 28 0 50 5 50 10 0 6 -22 10 -50 10 -27
0 -50 -4 -50 -10z"/>
</g>
</svg>
