<svg width="195" height="45" viewBox="0 0 195 45" fill="none" xmlns="http://www.w3.org/2000/svg">
<rect x="4.5" y="4.5" width="186" height="34" rx="13.5" stroke="#D9D9D9"/>
<path d="M33.7585 27V18.2727H37.2528C37.8949 18.2727 38.4304 18.3679 38.8594 18.5582C39.2884 18.7486 39.6108 19.0128 39.8267 19.3509C40.0426 19.6861 40.1506 20.0724 40.1506 20.5099C40.1506 20.8509 40.0824 21.1506 39.946 21.4091C39.8097 21.6648 39.6222 21.875 39.3835 22.0398C39.1477 22.2017 38.8778 22.3168 38.5739 22.3849V22.4702C38.9063 22.4844 39.2173 22.5781 39.5071 22.7514C39.7997 22.9247 40.0369 23.1676 40.2188 23.4801C40.4006 23.7898 40.4915 24.1591 40.4915 24.5881C40.4915 25.0511 40.3764 25.4645 40.1463 25.8281C39.919 26.1889 39.5824 26.4744 39.1364 26.6847C38.6903 26.8949 38.1406 27 37.4872 27H33.7585ZM35.6037 25.4915H37.108C37.6222 25.4915 37.9972 25.3935 38.233 25.1974C38.4688 24.9986 38.5866 24.7344 38.5866 24.4048C38.5866 24.1634 38.5284 23.9503 38.4119 23.7656C38.2955 23.581 38.1293 23.4361 37.9134 23.331C37.7003 23.2259 37.446 23.1733 37.1506 23.1733H35.6037V25.4915ZM35.6037 21.9247H36.9716C37.2244 21.9247 37.4489 21.8807 37.6449 21.7926C37.8438 21.7017 38 21.5739 38.1136 21.4091C38.2301 21.2443 38.2884 21.0469 38.2884 20.8168C38.2884 20.5014 38.1761 20.2472 37.9517 20.054C37.7301 19.8608 37.4148 19.7642 37.0057 19.7642H35.6037V21.9247ZM42.9066 21.4986H44.9862C45.6793 21.4986 46.2759 21.6108 46.7759 21.8352C47.2788 22.0568 47.6665 22.3707 47.9393 22.777C48.212 23.1832 48.3469 23.6619 48.3441 24.2131C48.3469 24.7614 48.212 25.2457 47.9393 25.6662C47.6665 26.0838 47.2788 26.4105 46.7759 26.6463C46.2759 26.8821 45.6793 27 44.9862 27H41.7262V18.2727H43.5671V25.517H44.9862C45.3185 25.517 45.5984 25.4574 45.8256 25.3381C46.0529 25.2159 46.2248 25.0554 46.3413 24.8565C46.4606 24.6548 46.5188 24.4347 46.516 24.196C46.5188 23.8494 46.3881 23.5568 46.1239 23.3182C45.8626 23.0767 45.4833 22.956 44.9862 22.956H42.9066V21.4986ZM50.8967 18.2727V27H49.0558V18.2727H50.8967ZM57.6946 27L54.8906 23.2798H54.2599V27H52.4148V18.2727H54.2599V21.7585H54.6307L57.5284 18.2727H59.8253L56.4205 22.321L59.983 27H57.6946ZM61.8526 27.1193V25.6193H62.3256C62.5614 25.6193 62.7518 25.5909 62.8967 25.5341C63.0415 25.4744 63.1566 25.3878 63.2418 25.2741C63.3299 25.1577 63.4038 25.0128 63.4634 24.8395L63.57 24.554L60.3995 18.2727H62.3086L64.3626 22.5682L66.0799 18.2727H67.9634L64.9549 25.2869C64.81 25.6108 64.6381 25.9119 64.4393 26.1903C64.2433 26.4687 63.9918 26.6932 63.685 26.8636C63.3782 27.0341 62.9862 27.1193 62.5089 27.1193H61.8526ZM76.3807 18.2727V27H74.5568V19.7727H71.0284V27H69.2045V18.2727H76.3807ZM78.1374 18.2727H79.9783V23.7614H80.0508L83.8221 18.2727H85.4371V27H83.592V21.5071H83.5281L79.7354 27H78.1374V18.2727ZM86.6293 19.794V18.2727H93.7969V19.794H91.125V27H89.3011V19.794H86.6293ZM96.1918 21.4986H98.2713C98.9645 21.4986 99.5611 21.6108 100.061 21.8352C100.564 22.0568 100.952 22.3707 101.224 22.777C101.497 23.1832 101.632 23.6619 101.629 24.2131C101.632 24.7614 101.497 25.2457 101.224 25.6662C100.952 26.0838 100.564 26.4105 100.061 26.6463C99.5611 26.8821 98.9645 27 98.2713 27H95.0114V18.2727H96.8523V25.517H98.2713C98.6037 25.517 98.8835 25.4574 99.1108 25.3381C99.3381 25.2159 99.5099 25.0554 99.6264 24.8565C99.7457 24.6548 99.804 24.4347 99.8011 24.196C99.804 23.8494 99.6733 23.5568 99.4091 23.3182C99.1477 23.0767 98.7685 22.956 98.2713 22.956H96.1918V21.4986ZM105.876 27V18.2727H109.37C110.012 18.2727 110.548 18.3679 110.977 18.5582C111.406 18.7486 111.728 19.0128 111.944 19.3509C112.16 19.6861 112.268 20.0724 112.268 20.5099C112.268 20.8509 112.2 21.1506 112.063 21.4091C111.927 21.6648 111.739 21.875 111.501 22.0398C111.265 22.2017 110.995 22.3168 110.691 22.3849V22.4702C111.023 22.4844 111.335 22.5781 111.624 22.7514C111.917 22.9247 112.154 23.1676 112.336 23.4801C112.518 23.7898 112.609 24.1591 112.609 24.5881C112.609 25.0511 112.494 25.4645 112.263 25.8281C112.036 26.1889 111.7 26.4744 111.254 26.6847C110.808 26.8949 110.258 27 109.604 27H105.876ZM107.721 25.4915H109.225C109.739 25.4915 110.114 25.3935 110.35 25.1974C110.586 24.9986 110.704 24.7344 110.704 24.4048C110.704 24.1634 110.646 23.9503 110.529 23.7656C110.413 23.581 110.246 23.4361 110.031 23.331C109.817 23.2259 109.563 23.1733 109.268 23.1733H107.721V25.4915ZM107.721 21.9247H109.089C109.342 21.9247 109.566 21.8807 109.762 21.7926C109.961 21.7017 110.117 21.5739 110.231 21.4091C110.347 21.2443 110.406 21.0469 110.406 20.8168C110.406 20.5014 110.293 20.2472 110.069 20.054C109.847 19.8608 109.532 19.7642 109.123 19.7642H107.721V21.9247ZM113.809 27V18.2727H119.69V19.794H115.654V21.8736H119.387V23.3949H115.654V25.4787H119.707V27H113.809ZM128.857 21.3281H126.991C126.957 21.0866 126.887 20.8722 126.782 20.6847C126.677 20.4943 126.542 20.3324 126.377 20.1989C126.212 20.0653 126.022 19.9631 125.806 19.892C125.593 19.821 125.362 19.7855 125.112 19.7855C124.66 19.7855 124.266 19.8977 123.931 20.1222C123.596 20.3437 123.336 20.6676 123.151 21.0938C122.967 21.517 122.874 22.0312 122.874 22.6364C122.874 23.2585 122.967 23.7812 123.151 24.2045C123.339 24.6278 123.6 24.9474 123.935 25.1634C124.271 25.3793 124.658 25.4872 125.099 25.4872C125.346 25.4872 125.575 25.4545 125.785 25.3892C125.998 25.3239 126.187 25.2287 126.352 25.1037C126.516 24.9759 126.653 24.821 126.761 24.6392C126.871 24.4574 126.948 24.25 126.991 24.017L128.857 24.0256C128.809 24.4261 128.688 24.8125 128.495 25.1847C128.305 25.554 128.048 25.8849 127.724 26.1776C127.403 26.4673 127.019 26.6974 126.573 26.8679C126.13 27.0355 125.629 27.1193 125.069 27.1193C124.29 27.1193 123.594 26.9432 122.981 26.5909C122.37 26.2386 121.887 25.7287 121.532 25.0611C121.18 24.3935 121.004 23.5852 121.004 22.6364C121.004 21.6847 121.183 20.875 121.54 20.2074C121.898 19.5398 122.384 19.0312 122.998 18.6818C123.612 18.3295 124.302 18.1534 125.069 18.1534C125.575 18.1534 126.043 18.2244 126.475 18.3665C126.91 18.5085 127.295 18.7159 127.63 18.9886C127.965 19.2585 128.238 19.5895 128.448 19.9815C128.661 20.3736 128.798 20.8224 128.857 21.3281ZM131.395 21.4986H133.474C134.168 21.4986 134.764 21.6108 135.264 21.8352C135.767 22.0568 136.155 22.3707 136.428 22.777C136.7 23.1832 136.835 23.6619 136.832 24.2131C136.835 24.7614 136.7 25.2457 136.428 25.6662C136.155 26.0838 135.767 26.4105 135.264 26.6463C134.764 26.8821 134.168 27 133.474 27H130.214V18.2727H132.055V25.517H133.474C133.807 25.517 134.087 25.4574 134.314 25.3381C134.541 25.2159 134.713 25.0554 134.83 24.8565C134.949 24.6548 135.007 24.4347 135.004 24.196C135.007 23.8494 134.876 23.5568 134.612 23.3182C134.351 23.0767 133.972 22.956 133.474 22.956H131.395V21.4986ZM144.254 27.1193C143.617 27.1193 143.05 27.0099 142.553 26.7912C142.059 26.5696 141.668 26.2656 141.381 25.8793C141.097 25.4901 140.951 25.0412 140.942 24.5327H142.8C142.812 24.7457 142.881 24.9332 143.009 25.0952C143.14 25.2543 143.313 25.3778 143.529 25.4659C143.745 25.554 143.988 25.598 144.258 25.598C144.539 25.598 144.788 25.5483 145.004 25.4489C145.219 25.3494 145.388 25.2116 145.511 25.0355C145.633 24.8594 145.694 24.6562 145.694 24.4261C145.694 24.1932 145.629 23.9872 145.498 23.8082C145.37 23.6264 145.185 23.4844 144.944 23.3821C144.705 23.2798 144.421 23.2287 144.092 23.2287H143.278V21.8736H144.092C144.37 21.8736 144.616 21.8253 144.829 21.7287C145.045 21.6321 145.212 21.4986 145.332 21.3281C145.451 21.1548 145.511 20.9531 145.511 20.723C145.511 20.5043 145.458 20.3125 145.353 20.1477C145.251 19.9801 145.106 19.8494 144.918 19.7557C144.734 19.6619 144.518 19.6151 144.271 19.6151C144.021 19.6151 143.792 19.6605 143.585 19.7514C143.377 19.8395 143.211 19.9659 143.086 20.1307C142.961 20.2955 142.894 20.4886 142.886 20.7102H141.117C141.126 20.2074 141.269 19.7642 141.548 19.3807C141.826 18.9972 142.201 18.6974 142.673 18.4815C143.147 18.2628 143.683 18.1534 144.279 18.1534C144.881 18.1534 145.408 18.2628 145.86 18.4815C146.312 18.7003 146.663 18.9957 146.913 19.3679C147.165 19.7372 147.29 20.152 147.288 20.6122C147.29 21.1009 147.138 21.5085 146.832 21.8352C146.528 22.1619 146.131 22.3693 145.643 22.4574V22.5256C146.285 22.608 146.773 22.831 147.109 23.1946C147.447 23.5554 147.614 24.0071 147.612 24.5497C147.614 25.0469 147.471 25.4886 147.181 25.875C146.894 26.2614 146.498 26.5653 145.992 26.7869C145.487 27.0085 144.907 27.1193 144.254 27.1193ZM150.493 27H148.516L151.529 18.2727H153.907L156.915 27H154.938L152.752 20.267H152.684L150.493 27ZM150.37 23.5696H155.04V25.0099H150.37V23.5696ZM157.493 27V25.517L157.74 25.4957C158.058 25.4702 158.315 25.3494 158.511 25.1335C158.707 24.9148 158.853 24.5668 158.95 24.0895C159.049 23.6094 159.113 22.9645 159.142 22.1548L159.287 18.2727H165.21V27H163.416V19.7514H161L160.863 22.7898C160.818 23.767 160.701 24.5653 160.514 25.1847C160.329 25.804 160.034 26.2614 159.627 26.5568C159.224 26.8523 158.672 27 157.97 27H157.493Z" fill="#D9D9D9"/>
</svg>
