<svg width="32" height="32" viewBox="0 0 32 32" fill="none" xmlns="http://www.w3.org/2000/svg">
<path d="M23.3333 25.34V6.66C23.3334 6.46684 23.2811 6.27728 23.1819 6.11153C23.0827 5.94579 22.9404 5.81009 22.7701 5.71893C22.5998 5.62776 22.408 5.58454 22.215 5.59389C22.0221 5.60324 21.8353 5.6648 21.6747 5.772L19.9813 6.90133C19.793 7.02673 19.5697 7.08902 19.3437 7.07919C19.1177 7.06936 18.9007 6.98793 18.724 6.84667L16.6667 5.2C16.4775 5.04853 16.2423 4.966 16 4.966C15.7576 4.966 15.5225 5.04853 15.3333 5.2L13.276 6.84667C13.099 6.98804 12.8817 7.06941 12.6554 7.079C12.4291 7.08859 12.2056 7.02589 12.0173 6.9L10.324 5.772C10.1633 5.66516 9.97669 5.60389 9.78396 5.59473C9.59123 5.58557 9.39963 5.62886 9.22956 5.71998C9.05949 5.81111 8.91732 5.94666 8.81819 6.11219C8.71906 6.27773 8.66669 6.46705 8.66666 6.66V25.34C8.66653 25.5332 8.71886 25.7227 8.81805 25.8885C8.91725 26.0542 9.05958 26.1899 9.22987 26.2811C9.40016 26.3722 9.59201 26.4155 9.78494 26.4061C9.97787 26.3968 10.1646 26.3352 10.3253 26.228L12.0187 25.1C12.2068 24.9744 12.43 24.9119 12.656 24.9215C12.882 24.9311 13.0991 25.0123 13.276 25.1533L15.3333 26.8C15.5225 26.9515 15.7576 27.034 16 27.034C16.2423 27.034 16.4775 26.9515 16.6667 26.8L18.724 25.1533C18.9009 25.012 19.1183 24.9306 19.3446 24.921C19.5709 24.9114 19.7944 24.9741 19.9827 25.1L21.676 26.228C21.8367 26.3348 22.0233 26.3961 22.216 26.4053C22.4087 26.4144 22.6003 26.3711 22.7704 26.28C22.9405 26.1889 23.0827 26.0533 23.1818 25.8878C23.2809 25.7223 23.3333 25.5329 23.3333 25.34Z" fill="#D9D9D9" stroke="white"/>
<path d="M12.6667 12.6667H19.3333M12.6667 16H19.3333M16 19.3333H19.3333" stroke="black" stroke-linecap="round"/>
</svg>
