<svg width="40" height="40" viewBox="0 0 40 40" fill="none" xmlns="http://www.w3.org/2000/svg">
<circle cx="20.5" cy="20.5" r="17" stroke="white"/>
<path fill-rule="evenodd" clip-rule="evenodd" d="M11.2117 20.1583C16.0706 18.0406 19.31 16.6444 20.93 15.97C25.5583 14.045 26.5217 13.7117 27.1483 13.7C27.285 13.6983 27.5933 13.7317 27.7933 13.895C27.9258 14.01 28.0103 14.1706 28.03 14.345C28.0633 14.5616 28.0728 14.7813 28.0583 15C27.8083 17.6367 26.7233 24.0333 26.17 26.9833C25.9367 28.2333 25.4767 28.6517 25.0317 28.6933C24.265 28.7617 23.645 28.3217 22.955 27.8283C21.7264 26.9522 20.4599 26.118 19.1986 25.2872C19.0228 25.1714 18.8472 25.0558 18.6717 24.94C17.2552 24.0068 17.8485 23.4348 18.6383 22.6733C19.015 22.3078 19.3944 21.945 19.7767 21.585C21.0667 20.3867 23.56 18.0683 23.6233 17.8C23.6333 17.755 23.6433 17.5917 23.545 17.505C23.4483 17.4183 23.305 17.4483 23.2 17.4717C23.0533 17.5039 20.71 19.0533 16.17 22.12C15.5056 22.5756 14.9033 22.7978 14.3633 22.7867C13.7683 22.7733 12.6217 22.45 11.7717 22.1733L11.4083 22.0567C10.5433 21.785 9.90833 21.585 9.97167 21.0783C10.0083 20.7783 10.4217 20.4717 11.2117 20.1583Z" fill="white"/>
</svg>
