<svg width="40" height="40" viewBox="0 0 40 40" fill="none" xmlns="http://www.w3.org/2000/svg">
<path d="M7.1 7.1C5 9.22 5 12.61 5 19.4V20.6C5 27.38 5 30.77 7.1 32.9C9.22 35 12.61 35 19.4 35H20.6C27.38 35 30.77 35 32.9 32.9C35 30.78 35 27.39 35 20.6V19.4C35 12.62 35 9.23 32.9 7.1C30.78 5 27.39 5 20.6 5H19.4C12.62 5 9.23 5 7.1 7.1ZM10.06 14.13H13.5C13.61 19.85 16.13 22.27 18.13 22.77V14.13H21.36V19.06C23.33 18.85 25.41 16.6 26.11 14.12H29.33C29.0673 15.4037 28.5427 16.6194 27.7891 17.6914C27.0355 18.7633 26.069 19.6683 24.95 20.35C26.1991 20.9714 27.3021 21.8507 28.1864 22.9298C29.0707 24.0089 29.7161 25.2632 30.08 26.61H26.53C25.77 24.24 23.87 22.4 21.36 22.15V26.61H20.96C14.12 26.61 10.22 21.93 10.06 14.13Z" fill="white"/>
</svg>
