<svg width="32" height="32" viewBox="0 0 32 32" fill="none" xmlns="http://www.w3.org/2000/svg">
<path d="M9 4.5H23C24.3807 4.5 25.5 5.61929 25.5 7V18.9238C25.5 20.329 24.3422 21.458 22.9375 21.4229L8.9375 21.0732C7.58161 21.0393 6.50008 19.9305 6.5 18.5742V7C6.5 5.61929 7.61929 4.5 9 4.5Z" stroke="#B11BC9"/>
<mask id="path-2-inside-1_17_41" fill="white">
<rect x="7" y="4" width="18" height="18" rx="3"/>
</mask>
<rect x="7" y="4" width="18" height="18" rx="3" stroke="#60085D" stroke-width="18" mask="url(#path-2-inside-1_17_41)"/>
<rect x="23.5" y="11.5" width="5" height="14" rx="0.5" stroke="#9A9A9A" stroke-opacity="0.3"/>
<rect x="23.5" y="11.5" width="4" height="10" rx="0.5" fill="#6F056C" stroke="#B11BC9"/>
<rect x="3.5" y="11.5" width="5" height="14" rx="0.5" stroke="#9A9A9A" stroke-opacity="0.3"/>
<rect x="4.5" y="11.5" width="4" height="10" rx="0.5" fill="#6F056C" stroke="#B11BC9"/>
<g filter="url(#filter0_d_17_41)">
<rect x="4.5" y="21.5" width="23" height="5" rx="0.5" stroke="#929292" stroke-opacity="0.3" shape-rendering="crispEdges"/>
</g>
<g filter="url(#filter1_d_17_41)">
<rect x="4" y="21" width="24" height="5" rx="1" fill="#6F056C"/>
<rect x="4.5" y="21.5" width="23" height="4" rx="0.5" stroke="#B21BC9"/>
</g>
<defs>
<filter id="filter0_d_17_41" x="3.99" y="21" width="24.02" height="7.01" filterUnits="userSpaceOnUse" color-interpolation-filters="sRGB">
<feFlood flood-opacity="0" result="BackgroundImageFix"/>
<feColorMatrix in="SourceAlpha" type="matrix" values="0 0 0 0 0 0 0 0 0 0 0 0 0 0 0 0 0 0 127 0" result="hardAlpha"/>
<feOffset dy="1"/>
<feGaussianBlur stdDeviation="0.005"/>
<feComposite in2="hardAlpha" operator="out"/>
<feColorMatrix type="matrix" values="0 0 0 0 0 0 0 0 0 0 0 0 0 0 0 0 0 0 0.1 0"/>
<feBlend mode="normal" in2="BackgroundImageFix" result="effect1_dropShadow_17_41"/>
<feBlend mode="normal" in="SourceGraphic" in2="effect1_dropShadow_17_41" result="shape"/>
</filter>
<filter id="filter1_d_17_41" x="3.99" y="21" width="24.02" height="6.01" filterUnits="userSpaceOnUse" color-interpolation-filters="sRGB">
<feFlood flood-opacity="0" result="BackgroundImageFix"/>
<feColorMatrix in="SourceAlpha" type="matrix" values="0 0 0 0 0 0 0 0 0 0 0 0 0 0 0 0 0 0 127 0" result="hardAlpha"/>
<feOffset dy="1"/>
<feGaussianBlur stdDeviation="0.005"/>
<feComposite in2="hardAlpha" operator="out"/>
<feColorMatrix type="matrix" values="0 0 0 0 0 0 0 0 0 0 0 0 0 0 0 0 0 0 0.1 0"/>
<feBlend mode="normal" in2="BackgroundImageFix" result="effect1_dropShadow_17_41"/>
<feBlend mode="normal" in="SourceGraphic" in2="effect1_dropShadow_17_41" result="shape"/>
</filter>
</defs>
</svg>
