<?xml version="1.0" standalone="no"?>
<!DOCTYPE svg PUBLIC "-//W3C//DTD SVG 20010904//EN"
 "http://www.w3.org/TR/2001/REC-SVG-20010904/DTD/svg10.dtd">
<svg version="1.0" xmlns="http://www.w3.org/2000/svg"
 width="512.000000pt" height="512.000000pt" viewBox="0 0 512.000000 512.000000"
 preserveAspectRatio="xMidYMid meet">

<g transform="translate(0.000000,512.000000) scale(0.100000,-0.100000)"
fill="#000000" stroke="none">
<path d="M3890 4555 c-206 -50 -385 -214 -441 -403 -9 -32 -17 -42 -28 -38 -9
2 -47 17 -86 32 -85 32 -230 43 -327 25 -217 -42 -414 -227 -463 -433 -41
-173 9 -376 125 -510 80 -93 140 -122 705 -341 650 -252 660 -255 682 -241 43
27 151 269 353 789 62 160 123 313 135 340 37 81 48 135 49 230 0 260 -179
492 -425 550 -78 18 -205 18 -279 0z m245 -149 c208 -55 341 -256 306 -461
-10 -55 -430 -1108 -449 -1126 -10 -9 -1076 405 -1121 434 -61 41 -121 109
-153 177 -122 253 65 572 351 599 94 9 133 2 252 -45 52 -20 117 -39 146 -42
62 -5 62 -5 124 148 23 58 52 121 64 140 30 47 103 114 154 139 94 49 228 64
326 37z"/>
<path d="M1170 3325 c-155 -31 -273 -92 -387 -198 -186 -176 -288 -449 -254
-687 15 -109 430 -1851 447 -1877 29 -46 -16 -54 1059 182 165 37 396 86 513
110 367 76 531 146 672 285 59 59 86 96 127 175 84 164 98 222 98 410 0 154
-1 163 -31 247 -100 278 -323 478 -620 554 -161 41 -383 32 -533 -21 l-40 -14
-31 131 c-56 237 -118 357 -247 480 -198 188 -507 277 -773 223z m347 -151
c209 -54 398 -216 474 -405 11 -30 40 -132 64 -227 25 -100 50 -181 60 -192
25 -27 49 -26 237 17 204 46 321 50 438 14 375 -114 598 -518 484 -876 -27
-82 -104 -206 -168 -268 -86 -84 -222 -148 -408 -193 -162 -39 -1602 -352
-1606 -349 -1 1 -95 391 -209 866 -198 830 -207 868 -207 969 -1 90 3 118 28
194 80 243 294 428 540 467 66 10 200 2 273 -17z"/>
</g>
</svg>
